<svg width="402" height="344" viewBox="0 0 402 344" fill="none" xmlns="http://www.w3.org/2000/svg">
	<path fill-rule="evenodd" clip-rule="evenodd" d="M143.681 115.932C155.488 121.37 171.613 120.889 191.609 112.638C173.167 122.411 156.233 123.713 143.388 118.346C143.468 117.546 143.565 116.741 143.681 115.932ZM122.547 91.2967C125.755 100.616 131.256 108.534 138.457 113.184C137.919 113.805 137.392 114.432 136.877 115.066C129.256 110.206 123.328 101.862 120.283 91.8425L122.547 91.2967ZM262.288 65.809C256.323 43.872 239.538 24.5338 244.394 0C222.323 21.1367 231.743 34.5136 245.547 62.3351C251.775 74.9212 254.542 85.2461 244.753 89.6065C240.483 91.0011 237.075 89.8221 237.253 82.3201C239.344 56.6116 211.721 35.6653 216.697 1.73221C193.56 25.6507 208.725 44.0192 220.592 69.6226C226.258 79.9548 224.476 88.7052 218.858 91.2472C214.005 93.439 207.504 91.7163 207.97 83.1857C215.925 43.2325 196.485 25.3878 171.214 21.8308C145.942 18.2728 117.726 36.5708 116.807 66.0151C117.454 65.8931 118.446 65.6944 119.09 65.5545C123.927 40.2277 149.308 28.7112 170.658 34.1066C192.007 39.502 208.086 54.8173 205.022 84.2122C202.968 105.256 222.452 110.721 233.141 95.451C248.48 110.579 271.465 93.3044 262.288 65.809ZM79.711 213.15C75.092 210.189 70.3591 208.392 66.483 205.811C65.2901 211.569 62.7745 216.349 59.6109 220.651C59.8322 218.054 58.5359 216.372 56.7644 214.977C52.1454 212.016 47.4125 210.219 43.5364 207.638C42.2254 213.969 39.3137 219.119 35.7 223.751C42.3129 225.746 47.9247 228.878 52.2866 233.426C54.0824 230.919 55.8781 228.413 57.6739 225.908C58.5043 224.484 59.0407 223.241 59.34 222.138C65.6516 224.141 71.0231 227.21 75.2332 231.599C77.029 229.093 78.8247 226.586 80.6205 224.08C84.0698 218.173 82.4616 215.317 79.711 213.15ZM102.75 88.6831C87.0279 89.9147 74.1404 92.5009 69.1419 105.566C63.7525 82.1497 81.9737 72.5338 110.828 69.1325C135.396 68.7033 157.136 64.3187 174.008 53.1156C173.783 68.0439 165.918 79.2154 142.995 82.9838C117.176 84.2111 99.7153 93.7998 100.443 121.582C101.868 140.085 93.4923 143.68 79.7627 141.296C62.158 136.965 52.7039 143.254 51.2549 159.315C72.7429 157.382 76.403 157.909 71.6659 171.976C67.989 180.888 62.6976 179.99 48.0807 180.508C-14.3697 179.575 -12.9659 277.596 75.3439 266.669C-8.19724 284.271 -21.3051 188.922 33.3678 168.405C36.0846 163.474 42.4215 160.447 48.0459 159.639C47.5253 134.038 57.8604 120.418 81.5721 124.06C89.8702 125.751 95.1932 124.46 94.0961 114.007C93.7294 105.637 97.5865 95.9706 102.75 88.6831ZM183.143 212.349C178.264 209.837 173.384 208.496 169.28 206.295C168.574 212.72 166.162 218.124 163.002 223.077C169.774 224.438 175.656 227.025 180.429 231.139C181.98 228.474 183.531 225.81 185.082 223.144C187.956 216.938 186.086 214.246 183.143 212.349ZM236.807 208.16C224.181 211.485 212.063 216.468 208.025 230.824C197.673 207.952 212.996 196.481 230.617 189.902C255.554 180.591 277.668 180.963 301.991 160.655C303.597 173.934 298.526 186.435 286.85 190.588C275.442 194.884 266.712 197.085 256.352 203.403C241.99 212.161 238.151 226.064 242.876 239.252C248.377 235.444 254.765 232.956 262.751 232.652C267.72 232.864 275.779 233.755 264.018 252.099C248.916 256.009 235.172 258.652 229.321 275.325C221.593 297.349 197.696 300.296 198.726 272.493C198.332 250.209 179.797 250.102 164.006 257.835C116.809 284.3 154.035 360.732 215.422 338.464C169.779 356.071 138.441 327.667 138.116 285.406C140.891 255.449 166.866 236.261 191.684 238.03C200.733 239.284 202.085 245.024 200.167 254.11C197.336 275.544 219.439 280.028 225.811 267.833C230.037 259.747 231.443 250.257 238.379 243.013C234.207 230.817 233.905 219.096 236.806 208.159L236.807 208.16ZM399.489 141.244C395.445 137.537 391.088 134.957 387.709 131.753C385.337 137.765 381.587 142.341 377.235 146.289C383.41 149.385 388.404 153.431 391.925 158.657C394.122 156.495 396.32 154.331 398.519 152.17C402.925 146.94 401.83 143.851 399.489 141.244ZM284.016 58.2313C277.619 46.78 275.492 34.6851 277.6 21.9497C256.684 44.1969 267.06 59.9487 277.871 80.2777C286.457 96.1925 286.159 108.08 284.726 121.192C296.874 110.186 301.743 96.4102 294.107 77.8776C290.742 71.3285 287.381 64.7804 284.017 58.2313H284.016ZM349.711 196.69C342.973 185.435 340.485 173.409 342.209 160.615C321.968 183.481 332.813 198.914 344.229 218.911C353.288 234.56 353.346 246.451 352.307 259.6C364.121 248.234 368.573 234.319 360.385 216.025C356.826 209.58 353.269 203.135 349.711 196.69ZM148.521 150.516C141.784 139.26 139.296 127.235 141.021 114.442C120.78 137.307 131.625 152.74 143.04 172.735C152.099 188.385 152.157 200.276 151.119 213.426C162.932 202.06 167.384 188.143 159.196 169.851C155.638 163.404 152.079 156.961 148.521 150.516ZM365.214 118.802C374.546 115.108 388.243 118.012 388.821 128.556C392.637 125.013 395.705 120.421 397.598 114.183C399.041 96.792 381.636 97.2747 365.575 104.228C334.442 118.849 303.308 133.47 272.175 148.092C252.864 156.081 232.195 156.692 222.716 143.469C220.128 139.262 219.227 135.38 223.491 135.358C231.738 135.131 236.585 135.035 240.227 127.317C242.897 121.662 244.799 116.433 236.763 115.12C222.051 113.762 206.25 114.494 199.548 127.963C165.899 142.335 163.405 193.77 191.975 213.529C169.999 191.896 165.01 144.465 209.644 137.343C215.068 136.553 216.222 138.659 215.968 141.721C209.989 169.541 242.174 174.439 262.866 166.774C290.204 156.647 334.681 130.032 365.214 118.802ZM138.063 186.371C130.37 165.834 119.358 156.985 119.311 123.893C105.133 142.227 105.872 150.297 110.801 163.574C114.358 171.366 119.648 182.331 123.206 190.124C125.983 197.157 129.551 205.278 125.926 209.853C121.173 214.438 117.142 214.507 113.828 208.45C109.79 200.45 100.436 183.964 103.305 172.882C91.3466 187.853 92.1433 196.68 96.2302 205.058C104.351 221.702 118.758 233.03 105.582 270.701C118.178 263.182 125.406 248.986 122.304 225.727C139.684 221.864 145.35 205.337 138.063 186.371ZM338.318 233.694C330.625 213.156 319.613 204.306 319.566 171.216C305.39 189.549 306.127 197.618 311.056 210.896C314.614 218.688 319.903 229.654 323.462 237.446C326.238 244.478 329.807 252.6 326.181 257.176C321.428 261.76 317.398 261.83 314.084 255.772C310.046 247.772 300.691 231.285 303.56 220.204C291.603 235.175 292.4 244.003 296.487 252.38C304.606 269.025 319.014 280.352 305.839 318.024C318.434 310.504 325.661 296.308 322.559 273.051C339.938 269.186 345.606 252.66 338.318 233.694Z" fill="url(#paint0_linear_50_926)" />
	<defs>
		<linearGradient id="paint0_linear_50_926" x1="200.999" y1="0" x2="200.999" y2="343.769" gradientUnits="userSpaceOnUse">
			<stop offset="0.605" stop-color="#33658A" />
			<stop offset="1" stop-color="#659BBE" stop-opacity="0.7" />
		</linearGradient>
	</defs>
</svg>
