<?xml version="1.0" encoding="UTF-8"?>
<svg version="1.1" xmlns="http://www.w3.org/2000/svg" width="1000" height="1000">
	<path d="M0 0 C98.8385702 -1.53977945 196.02436218 26.16589546 276.60107422 84.06201172 C277.80715332 84.92439453 277.80715332 84.92439453 279.03759766 85.80419922 C289.26949643 93.14647832 299.12504465 100.76876668 308.60107422 109.06201172 C310.03727333 110.29269814 311.47451889 111.52216632 312.91357422 112.74951172 C313.80044922 113.51263672 314.68732422 114.27576172 315.60107422 115.06201172 C309.93374569 121.98268952 303.58884198 128.20776361 297.26171875 134.51489258 C296.00940317 135.76692574 294.75730842 137.01917982 293.50541687 138.27163696 C290.12175146 141.65558824 286.73502072 145.03645633 283.34771585 148.41676402 C279.80251387 151.95569735 276.26016026 155.49747951 272.71749878 159.03895569 C266.01546078 165.73789071 259.31087865 172.43427341 252.6053704 179.12973458 C244.96857166 186.75534005 237.33462615 194.38379915 229.70091462 202.01249492 C214.00413231 217.69883625 198.30378449 233.38160469 182.60107422 249.06201172 C178.38678315 247.47735362 175.4785266 245.54257316 171.97607422 242.68701172 C127.37279559 207.49840019 69.54064915 189.51634049 13.10107422 189.74951172 C12.18176117 189.75133453 11.26244812 189.75315735 10.3152771 189.7550354 C-4.44202555 189.80415015 -18.84305694 190.43158761 -33.39892578 193.06201172 C-34.35669922 193.23361816 -35.31447266 193.40522461 -36.30126953 193.58203125 C-63.59866302 198.65271241 -89.90047801 208.03632462 -114.39892578 221.06201172 C-115.11258301 221.43551758 -115.82624023 221.80902344 -116.56152344 222.19384766 C-139.54154769 234.26954624 -159.67562118 250.16625649 -178.39892578 268.06201172 C-179.14658203 268.76841797 -179.89423828 269.47482422 -180.66455078 270.20263672 C-185.11405519 274.51199925 -189.05900221 279.13642547 -192.92626953 283.97216797 C-194.66802054 286.14866884 -196.42536919 288.2974026 -198.21533203 290.43310547 C-206.22985891 300.0811749 -213.00586925 310.27946933 -219.39892578 321.06201172 C-219.87217285 321.85736328 -220.34541992 322.65271484 -220.83300781 323.47216797 C-242.47304786 360.2490236 -256.36367965 404.49408859 -256.60205078 447.38232422 C-256.60906509 448.23560303 -256.61607941 449.08888184 -256.62330627 449.96801758 C-256.64070788 452.70773672 -256.64715919 455.44723932 -256.64892578 458.18701172 C-256.64960052 459.12575134 -256.65027527 460.06449097 -256.65097046 461.03167725 C-256.63437208 475.57899318 -256.03841845 489.72377254 -253.39892578 504.06201172 C-253.22731934 505.03654297 -253.05571289 506.01107422 -252.87890625 507.01513672 C-247.91098497 534.71829024 -238.6067207 561.22105926 -225.39892578 586.06201172 C-225.02541992 586.77566895 -224.65191406 587.48932617 -224.26708984 588.22460938 C-212.19139126 611.20463362 -196.29468101 631.33870711 -178.39892578 650.06201172 C-177.69251953 650.80966797 -176.98611328 651.55732422 -176.25830078 652.32763672 C-171.02912734 657.72686458 -165.27826651 662.39178991 -159.39892578 667.06201172 C-158.3022057 667.9495806 -157.20586313 668.83761613 -156.10986328 669.72607422 C-130.2012968 690.58751736 -101.03436042 705.89942914 -69.39892578 716.06201172 C-68.59471191 716.3261084 -67.79049805 716.59020508 -66.96191406 716.86230469 C-45.16728724 723.93189577 -21.45728956 728.1461356 1.47216797 728.26513672 C2.38387756 728.27215103 3.29558716 728.27916534 4.23492432 728.28639221 C7.16952506 728.30382262 10.10392357 728.31024705 13.03857422 728.31201172 C14.04417389 728.31268646 15.04977356 728.31336121 16.08584595 728.3140564 C32.11883153 728.29698764 47.74924429 727.662544 63.60107422 725.06201172 C65.20789063 724.80460205 65.20789063 724.80460205 66.84716797 724.54199219 C110.92990595 717.27924428 154.65893591 700.80905428 188.60107422 671.06201172 C189.41447266 670.35818359 190.22787109 669.65435547 191.06591797 668.92919922 C193.61755604 666.67988793 196.11651832 664.38518408 198.60107422 662.06201172 C199.53693359 661.19189453 200.47279297 660.32177734 201.43701172 659.42529297 C231.55938414 630.76367115 247.09108297 592.47447891 257.60107422 553.06201172 C176.75107422 553.06201172 95.90107422 553.06201172 12.60107422 553.06201172 C12.60107422 494.32201172 12.60107422 435.58201172 12.60107422 375.06201172 C153.84107422 375.06201172 295.08107422 375.06201172 440.60107422 375.06201172 C446.32875265 404.65501696 450.8269192 432.20938256 450.78857422 462.06201172 C450.78766785 463.37409103 450.78766785 463.37409103 450.78674316 464.712677 C450.65494086 535.53793026 436.96059342 606.43264671 407.60107422 671.06201172 C407.20823242 671.93583496 406.81539062 672.8096582 406.41064453 673.70996094 C388.341724 713.7065101 363.12942302 749.73313733 333.60107422 782.06201172 C332.73353516 783.03396484 331.86599609 784.00591797 330.97216797 785.00732422 C320.36807431 796.80598649 308.88861957 807.93791986 296.45263672 817.80029297 C294.25518365 819.54320438 292.09081676 821.30940697 289.93701172 823.10498047 C280.84166822 830.6605258 271.49788297 837.5933007 261.60107422 844.06201172 C260.87049805 844.53993164 260.13992188 845.01785156 259.38720703 845.51025391 C205.46372138 880.57323193 146.13958935 903.06729637 82.60107422 913.06201172 C81.62396484 913.21653809 80.64685547 913.37106445 79.64013672 913.53027344 C-10.20579163 927.35870666 -103.32931819 912.43779347 -185.39892578 874.06201172 C-186.31512695 873.63484863 -187.23132813 873.20768555 -188.17529297 872.76757812 C-223.33263328 856.2002662 -255.99393765 834.27174242 -285.52392578 809.06201172 C-286.03705322 808.62445557 -286.55018066 808.18689941 -287.07885742 807.73608398 C-296.80709935 799.34146767 -306.10905763 790.5198451 -315.17358398 781.41772461 C-316.72477305 779.86111783 -318.2813197 778.31001 -319.83837891 776.75927734 C-325.23478746 771.36715077 -330.48686931 765.90448128 -335.39892578 760.06201172 C-335.93316162 759.43447998 -336.46739746 758.80694824 -337.01782227 758.16040039 C-354.75512555 737.21835812 -370.70703048 714.85497688 -384.39892578 691.06201172 C-384.9819043 690.05050049 -384.9819043 690.05050049 -385.57666016 689.01855469 C-419.66632282 629.52632939 -440.0202404 563.44606073 -445.39892578 495.06201172 C-445.4856958 493.99998535 -445.4856958 493.99998535 -445.57421875 492.91650391 C-453.16926943 395.42039345 -428.35617873 295.10101028 -336.56567383 159.86157227 C-327.53038022 149.36526585 -317.92302744 139.48957643 -308.14892578 129.68701172 C-307.62932281 129.16472992 -307.10971985 128.64244812 -306.57437134 128.1043396 C-300.69826777 122.20528839 -294.77613374 116.42485503 -288.39892578 111.06201172 C-287.77131348 110.52769531 -287.14370117 109.99337891 -286.49707031 109.44287109 C-265.55487903 91.70584695 -243.19184774 75.75388215 -219.39892578 62.06201172 C-218.72458496 61.67335937 -218.05024414 61.28470703 -217.35546875 60.88427734 C-157.00116155 26.3006328 -91.44256961 7.14635229 -22.39892578 1.06201172 C-20.96540771 0.93487793 -20.96540771 0.93487793 -19.50292969 0.80517578 C-13.00152659 0.26565097 -6.52045636 0.1189625 0 0 Z " fill="#00B056" transform="translate(487.39892578125,40.93798828125)" />
	<path d="M0 0 C98.8385702 -1.53977945 196.02436218 26.16589546 276.60107422 84.06201172 C277.80715332 84.92439453 277.80715332 84.92439453 279.03759766 85.80419922 C289.26949643 93.14647832 299.12504465 100.76876668 308.60107422 109.06201172 C310.03727333 110.29269814 311.47451889 111.52216632 312.91357422 112.74951172 C313.80044922 113.51263672 314.68732422 114.27576172 315.60107422 115.06201172 C309.93374569 121.98268952 303.58884198 128.20776361 297.26171875 134.51489258 C296.00940317 135.76692574 294.75730842 137.01917982 293.50541687 138.27163696 C290.12175146 141.65558824 286.73502072 145.03645633 283.34771585 148.41676402 C279.80251387 151.95569735 276.26016026 155.49747951 272.71749878 159.03895569 C266.01546078 165.73789071 259.31087865 172.43427341 252.6053704 179.12973458 C244.96857166 186.75534005 237.33462615 194.38379915 229.70091462 202.01249492 C214.00413231 217.69883625 198.30378449 233.38160469 182.60107422 249.06201172 C178.38678315 247.47735362 175.4785266 245.54257316 171.97607422 242.68701172 C127.37279559 207.49840019 69.54064915 189.51634049 13.10107422 189.74951172 C12.18176117 189.75133453 11.26244812 189.75315735 10.3152771 189.7550354 C-4.44202555 189.80415015 -18.84305694 190.43158761 -33.39892578 193.06201172 C-34.35669922 193.23361816 -35.31447266 193.40522461 -36.30126953 193.58203125 C-63.59866302 198.65271241 -89.90047801 208.03632462 -114.39892578 221.06201172 C-115.11258301 221.43551758 -115.82624023 221.80902344 -116.56152344 222.19384766 C-139.54154769 234.26954624 -159.67562118 250.16625649 -178.39892578 268.06201172 C-179.14658203 268.76841797 -179.89423828 269.47482422 -180.66455078 270.20263672 C-185.11405519 274.51199925 -189.05900221 279.13642547 -192.92626953 283.97216797 C-194.66802054 286.14866884 -196.42536919 288.2974026 -198.21533203 290.43310547 C-206.22985891 300.0811749 -213.00586925 310.27946933 -219.39892578 321.06201172 C-219.87217285 321.85736328 -220.34541992 322.65271484 -220.83300781 323.47216797 C-242.47304786 360.2490236 -256.36367965 404.49408859 -256.60205078 447.38232422 C-256.60906509 448.23560303 -256.61607941 449.08888184 -256.62330627 449.96801758 C-256.64070788 452.70773672 -256.64715919 455.44723932 -256.64892578 458.18701172 C-256.64960052 459.12575134 -256.65027527 460.06449097 -256.65097046 461.03167725 C-256.63437966 475.57234836 -256.06729974 489.73345232 -253.39892578 504.06201172 C-253.11758789 505.59559326 -253.11758789 505.59559326 -252.83056641 507.16015625 C-250.8259084 517.85004371 -248.67188026 528.41390989 -245.00048828 538.67138672 C-244.31561713 541.39308247 -244.40481307 542.46299801 -245.39892578 545.06201172 C-247.1262207 546.71850586 -247.1262207 546.71850586 -249.37939453 548.34716797 C-250.20689209 548.95471924 -251.03438965 549.56227051 -251.88696289 550.18823242 C-252.77778564 550.82720459 -253.6686084 551.46617676 -254.58642578 552.12451172 C-256.42591063 553.47218362 -258.26444839 554.82114915 -260.10205078 556.17138672 C-261.00761719 556.83332031 -261.91318359 557.49525391 -262.84619141 558.17724609 C-266.23069816 560.67613593 -269.54297309 563.25738455 -272.83642578 565.87451172 C-273.95346142 566.75881816 -275.07064615 567.64293632 -276.18798828 568.52685547 C-276.72198242 568.94950684 -277.25597656 569.3721582 -277.80615234 569.80761719 C-282.63201004 573.60823902 -287.52080374 577.3288506 -292.39892578 581.06201172 C-293.04200684 581.55427246 -293.68508789 582.0465332 -294.34765625 582.55371094 C-300.09827693 586.95479411 -305.85210616 591.35167655 -311.60595703 595.74853516 C-319.75490802 601.97604166 -327.89772593 608.21108783 -336.02392578 614.46826172 C-340.70828399 618.07161419 -345.40626945 621.65716264 -350.10205078 625.24560547 C-354.37329905 628.51049848 -358.63923692 631.7820513 -362.89892578 635.06201172 C-374.6807227 644.13060384 -386.47979087 653.17433309 -398.39892578 662.06201172 C-400.7846002 659.89329414 -402.14391089 657.89600671 -403.49267578 654.97607422 C-403.8775415 654.14333984 -404.26240723 653.31060547 -404.65893555 652.45263672 C-405.06813232 651.53998047 -405.4773291 650.62732422 -405.89892578 649.68701172 C-406.33325928 648.72021484 -406.76759277 647.75341797 -407.21508789 646.75732422 C-428.51515378 598.5669234 -440.87909869 547.50890249 -445.39892578 495.06201172 C-445.47095215 494.23185547 -445.54297852 493.40169922 -445.6171875 492.54638672 C-453.51301466 395.36697553 -428.14651955 294.7716968 -337.96142578 161.49951172 C-328.51082805 150.40906915 -318.43173651 139.9997669 -308.14892578 129.68701172 C-307.62932281 129.16472992 -307.10971985 128.64244812 -306.57437134 128.1043396 C-300.69826777 122.20528839 -294.77613374 116.42485503 -288.39892578 111.06201172 C-287.77131348 110.52769531 -287.14370117 109.99337891 -286.49707031 109.44287109 C-265.55487903 91.70584695 -243.19184774 75.75388215 -219.39892578 62.06201172 C-218.72458496 61.67335937 -218.05024414 61.28470703 -217.35546875 60.88427734 C-157.00116155 26.3006328 -91.44256961 7.14635229 -22.39892578 1.06201172 C-20.96540771 0.93487793 -20.96540771 0.93487793 -19.50292969 0.80517578 C-13.00152659 0.26565097 -6.52045636 0.1189625 0 0 Z " fill="#FE1306" transform="translate(487.39892578125,40.93798828125)" />
	<path d="M0 0 C141.24 0 282.48 0 428 0 C433.72767843 29.59300524 438.22584498 57.14737084 438.1875 87 C438.18689575 87.87471954 438.1862915 88.74943909 438.18566895 89.65066528 C438.05386664 160.47591854 424.3595192 231.37063499 395 296 C394.6071582 296.87382324 394.21431641 297.74764648 393.80957031 298.64794922 C375.74532128 338.63415776 350.54156546 374.69346043 321 407 C320.02976319 408.07535419 319.05972209 409.15088499 318.08984375 410.2265625 C312.36456151 416.54138596 306.55415178 422.52165596 300 428 C295.77476975 426.58397689 293.02973368 424.54649988 289.6875 421.625 C284.96872977 417.57490858 280.12002833 413.76599017 275.125 410.0625 C268.90435097 405.44207707 262.77856413 400.7221845 256.69921875 395.91796875 C252.46203225 392.56965393 248.2008277 389.25243115 243.9375 385.9375 C242.78145264 385.03862061 242.78145264 385.03862061 241.60205078 384.12158203 C236.2170858 379.93811659 230.81523926 375.77735539 225.40625 371.625 C220.47145464 367.82900357 215.56454869 363.99701961 210.65234375 360.171875 C206.27855923 356.76757571 201.89641293 353.37502406 197.5 350 C192.31684112 346.02100935 187.15568718 342.01451165 182 338 C176.60997282 333.80498778 171.2198338 329.61019518 165.8125 325.4375 C164.79414062 324.65117188 163.77578125 323.86484375 162.7265625 323.0546875 C160.41977228 321.3163327 158.08242231 319.67501741 155.6875 318.0625 C154.800625 317.381875 153.91375 316.70125 153 316 C153 315.01 153 314.02 153 313 C155.23828125 311.2734375 155.23828125 311.2734375 158.3125 309.375 C168.35812236 302.91794309 177.28663801 295.14738832 186 287 C187.40378906 285.69482422 187.40378906 285.69482422 188.8359375 284.36328125 C218.95830992 255.70165943 234.49000875 217.41246719 245 178 C164.15 178 83.3 178 0 178 C0 119.26 0 60.52 0 0 Z " fill="#4079F6" transform="translate(500,416)" />
	<path d="M0 0 C5.54441358 2.83381139 10.03411125 6.41038514 14.8046875 10.39453125 C18.30028377 13.28109641 21.92388189 15.98490806 25.5625 18.6875 C31.43308102 23.05303794 37.23710023 27.49326758 43 32 C48.62251569 36.39467204 54.2773499 40.73651168 60 45 C66.49948228 49.84224377 72.90328261 54.79812873 79.2890625 59.7890625 C84.15193845 63.58243996 89.05431553 67.31536655 94 71 C100.49948228 75.84224377 106.90328261 80.79812873 113.2890625 85.7890625 C118.15196981 89.58246442 123.0552388 93.31409593 128 97 C129.958262 98.46603076 131.91534689 99.9336095 133.87158203 101.40234375 C135.38966412 102.54186305 136.90900883 103.67970108 138.42919922 104.81640625 C140.94022567 106.70028051 143.4398028 108.59850173 145.9375 110.5 C147.11989258 111.38171875 147.11989258 111.38171875 148.32617188 112.28125 C149.41575195 113.1165625 149.41575195 113.1165625 150.52734375 113.96875 C151.49788696 114.70254883 151.49788696 114.70254883 152.48803711 115.45117188 C154.30908794 117.31662423 154.72648357 118.42043069 155 121 C154.64208984 122.90576172 154.64208984 122.90576172 153.9609375 124.9296875 C153.71239014 125.71045654 153.46384277 126.49122559 153.20776367 127.2956543 C152.93295166 128.14683838 152.65813965 128.99802246 152.375 129.875 C149.57806839 139.03838246 147.71865285 148.24747814 146.1875 157.6875 C145.98108887 158.95126465 145.77467773 160.2150293 145.56201172 161.51708984 C143.99163691 171.4601599 142.85284715 181.24968583 142.796875 191.3203125 C142.78986069 192.17359131 142.78284637 193.02687012 142.77561951 193.90600586 C142.7582179 196.64572501 142.75176659 199.38522761 142.75 202.125 C142.74932526 203.06373962 142.74865051 204.00247925 142.74795532 204.96966553 C142.76454612 219.51033664 143.33162604 233.6714406 146 248 C146.28133789 249.53358154 146.28133789 249.53358154 146.56835938 251.09814453 C148.57301738 261.788032 150.72704552 272.35189817 154.3984375 282.609375 C155.08330865 285.33107075 154.99411271 286.40098629 154 289 C152.27270508 290.65649414 152.27270508 290.65649414 150.01953125 292.28515625 C149.19203369 292.89270752 148.36453613 293.50025879 147.51196289 294.1262207 C146.62114014 294.76519287 145.73031738 295.40416504 144.8125 296.0625 C142.97301516 297.4101719 141.13447739 298.75913743 139.296875 300.109375 C138.39130859 300.77130859 137.48574219 301.43324219 136.55273438 302.11523438 C133.16822762 304.61412421 129.85595269 307.19537283 126.5625 309.8125 C125.44546436 310.69680644 124.32827964 311.5809246 123.2109375 312.46484375 C122.67694336 312.88749512 122.14294922 313.31014648 121.59277344 313.74560547 C116.76691574 317.5462273 111.87812204 321.26683888 107 325 C106.03537842 325.73839111 106.03537842 325.73839111 105.05126953 326.49169922 C99.30064886 330.89278239 93.54681962 335.28966483 87.79296875 339.68652344 C79.64401776 345.91402995 71.50119985 352.14907612 63.375 358.40625 C58.69064179 362.00960247 53.99265633 365.59515092 49.296875 369.18359375 C45.02562673 372.44848676 40.75968886 375.72003958 36.5 379 C24.71820308 388.06859212 12.91913491 397.11232137 1 406 C-1.38567441 403.83128242 -2.74498511 401.833995 -4.09375 398.9140625 C-4.47861572 398.08132813 -4.86348145 397.24859375 -5.26000977 396.390625 C-5.66920654 395.47796875 -6.07840332 394.5653125 -6.5 393.625 C-6.9343335 392.65820312 -7.36866699 391.69140625 -7.81616211 390.6953125 C-29.116228 342.50491168 -41.48017291 291.44689078 -46 239 C-46.07202637 238.16984375 -46.14405273 237.3396875 -46.21826172 236.484375 C-52.067035 164.4994731 -39.19549422 90.89285511 -11.75 24.3125 C-11.26700439 23.13776123 -10.78400879 21.96302246 -10.28637695 20.75268555 C-7.26745148 13.58215649 -3.8672207 6.75062998 0 0 Z " fill="#FEBD00" transform="translate(88,297)" />
</svg>
